<svg xmlns="http://www.w3.org/2000/svg" viewBox="0 0 64 64" fill="none">
  <rect width="64" height="64" rx="14" fill="#14181f"/>
  <rect x="10" y="10" width="18" height="18" rx="2" stroke="#5ee9a0" stroke-width="3"/>
  <rect x="15" y="15" width="8" height="8" fill="#5ee9a0"/>
  <rect x="36" y="10" width="18" height="18" rx="2" stroke="#5ee9a0" stroke-width="3"/>
  <rect x="41" y="15" width="8" height="8" fill="#5ee9a0"/>
  <rect x="10" y="36" width="18" height="18" rx="2" stroke="#5ee9a0" stroke-width="3"/>
  <rect x="15" y="41" width="8" height="8" fill="#5ee9a0"/>
  <rect x="36" y="36" width="4" height="4" fill="#5ee9a0"/>
  <rect x="44" y="36" width="4" height="4" fill="#5ee9a0"/>
  <rect x="50" y="36" width="4" height="4" fill="#5ee9a0"/>
  <rect x="36" y="44" width="4" height="4" fill="#5ee9a0"/>
  <rect x="50" y="44" width="4" height="4" fill="#5ee9a0"/>
  <rect x="36" y="50" width="4" height="4" fill="#5ee9a0"/>
  <rect x="44" y="50" width="4" height="4" fill="#5ee9a0"/>
  <rect x="50" y="50" width="4" height="4" fill="#5ee9a0"/>
</svg>
